<svg width="40" height="40" viewBox="0 0 40 40" fill="none" xmlns="http://www.w3.org/2000/svg">
<rect width="40" height="40" rx="20" fill="#647AC7"/>
<path fill-rule="evenodd" clip-rule="evenodd" d="M22.1138 13.7847C22.2361 13.7335 22.3674 13.7071 22.5 13.7071C22.6326 13.7071 22.7639 13.7335 22.8862 13.7847C23.0078 13.8356 23.1182 13.9101 23.2109 14.0038L25.9962 16.7891C26.0899 16.8818 26.1644 16.9922 26.2153 17.1138C26.2665 17.2361 26.2929 17.3674 26.2929 17.5C26.2929 17.6326 26.2665 17.7639 26.2153 17.8862C26.1644 18.0078 26.09 18.1182 25.9963 18.2109L18.3536 25.8536C18.2598 25.9473 18.1326 26 18 26H15C14.7348 26 14.4804 25.8946 14.2929 25.7071C14.1054 25.5196 14 25.2652 14 25V22.207M22.1138 13.7847C21.9922 13.8356 21.8818 13.9101 21.7891 14.0038L22.1138 13.7847ZM15 22.2071V25H17.7929L25.2929 17.5L25.2902 17.4973L22.5 14.7071L22.4973 14.7098L15 22.2071Z" fill="#EDECEE"/>
<path fill-rule="evenodd" clip-rule="evenodd" d="M17.5 25.5C17.5 25.2239 17.7239 25 18 25H25.5C25.7761 25 26 25.2239 26 25.5C26 25.7761 25.7761 26 25.5 26H18C17.7239 26 17.5 25.7761 17.5 25.5Z" fill="#EDECEE"/>
<path fill-rule="evenodd" clip-rule="evenodd" d="M20.1464 15.6464C20.3417 15.4512 20.6583 15.4512 20.8536 15.6464L24.3536 19.1464C24.5488 19.3417 24.5488 19.6583 24.3536 19.8536C24.1583 20.0488 23.8417 20.0488 23.6464 19.8536L20.1464 16.3536C19.9512 16.1583 19.9512 15.8417 20.1464 15.6464Z" fill="#EDECEE"/>
</svg>
