<svg width="24" height="24" viewBox="0 0 24 24" fill="none" xmlns="http://www.w3.org/2000/svg">
<path d="M12 2.25024C10.0716 2.25024 8.18657 2.82207 6.58319 3.89342C4.97982 4.96476 3.73013 6.4875 2.99218 8.26908C2.25422 10.0507 2.06114 12.0111 2.43735 13.9024C2.81355 15.7937 3.74215 17.531 5.10571 18.8945C6.46928 20.2581 8.20656 21.1867 10.0979 21.5629C11.9892 21.9391 13.9496 21.746 15.7312 21.0081C17.5127 20.2701 19.0355 19.0204 20.1068 17.4171C21.1782 15.8137 21.75 13.9286 21.75 12.0002C21.745 9.41591 20.7162 6.93883 18.8888 5.11143C17.0614 3.28402 14.5843 2.2552 12 2.25024V2.25024ZM12 20.2502C10.3683 20.2502 8.77326 19.7664 7.41655 18.8599C6.05984 17.9533 5.00242 16.6649 4.378 15.1574C3.75358 13.6499 3.5902 11.9911 3.90853 10.3907C4.22685 8.79041 5.01259 7.3204 6.16637 6.16661C7.32016 5.01283 8.79017 4.22709 10.3905 3.90877C11.9909 3.59044 13.6497 3.75382 15.1571 4.37824C16.6646 5.00266 17.9531 6.06008 18.8596 7.41679C19.7662 8.7735 20.25 10.3685 20.25 12.0002C20.2475 14.1875 19.3775 16.2845 17.8309 17.8311C16.2843 19.3778 14.1873 20.2478 12 20.2502V20.2502ZM18 12.0002C18 13.1869 17.6481 14.347 16.9888 15.3337C16.3295 16.3204 15.3925 17.0894 14.2961 17.5435C13.1997 17.9976 11.9933 18.1165 10.8295 17.885C9.66558 17.6534 8.59648 17.082 7.75736 16.2429C6.91825 15.4038 6.3468 14.3347 6.11529 13.1708C5.88378 12.0069 6.0026 10.8005 6.45673 9.70414C6.91085 8.60779 7.67989 7.67071 8.66658 7.01143C9.65328 6.35214 10.8133 6.00024 12 6.00024C13.5905 6.00272 15.1152 6.63566 16.2399 7.76034C17.3646 8.88502 17.9975 10.4097 18 12.0002V12.0002Z" fill="#647AC7"/>
</svg>
